<svg width="24" height="24" viewBox="0 0 24 24" fill="none" xmlns="http://www.w3.org/2000/svg">
    <path opacity="0.25" d="M11.9058 20.3342C16.4829 20.3342 20.1933 16.6142 20.1933 12.0253C20.1933 7.43636 16.4829 3.71631 11.9058 3.71631C7.32864 3.71631 3.61816 7.43636 3.61816 12.0253C3.61816 16.6142 7.32864 20.3342 11.9058 20.3342Z" fill="#fff" />
    <path opacity="0.5" d="M5.10064 10.484C3.03835 10.4832 1.17928 9.23789 0.389314 7.32799C-0.400648 5.41808 0.0338492 3.21919 1.49043 1.75549C3.4828 -0.241007 6.712 -0.241007 8.70436 1.75549C9.66147 2.71433 10.1992 4.01524 10.1992 5.37176C10.1992 6.72828 9.66147 8.02919 8.70436 8.98802C7.75098 9.94975 6.45308 10.4885 5.10064 10.484Z" fill="#fff" />
    <path opacity="0.5" d="M18.8994 23.9998C16.4647 24.0006 14.3686 22.2768 13.8934 19.8828C13.4182 17.4888 14.6962 15.0917 16.9457 14.158C19.1951 13.2242 21.7893 14.0139 23.1411 16.044C24.4929 18.0741 24.2258 20.779 22.5031 22.5038C21.5489 23.4643 20.2515 24.0029 18.8994 23.9998Z" fill="#fff" />
    <path d="M5.23732 23.9443C3.17385 23.9462 1.31237 22.7018 0.520745 20.7913C-0.270881 18.8808 0.163204 16.6803 1.62062 15.2158C1.84342 14.998 2.08554 14.801 2.34396 14.6272L2.59372 14.4678C2.76888 14.3638 2.95053 14.2694 3.14191 14.1784C3.23922 14.1361 3.33653 14.0906 3.44357 14.0516C3.64271 13.9786 3.84642 13.9189 4.05338 13.8727L4.18312 13.8369C4.20538 13.8289 4.22813 13.8224 4.25124 13.8174L5.40599 13.7329C5.5552 13.7329 5.73036 13.7621 5.8893 13.7849H5.92498H6.07743H6.12608H6.17474H6.48613C8.48237 13.7663 10.3879 12.9464 11.7766 11.5085C13.1729 10.0815 13.9375 8.15101 13.8979 6.15236V6.09708V6.04179C13.8865 5.97954 13.88 5.91647 13.8785 5.85318V5.69708L13.8363 5.54748C13.8363 5.45643 13.8136 5.35887 13.8103 5.26456L13.8882 4.19138V4.16537V4.14586C13.8882 4.11984 13.9368 3.97675 13.9368 3.97675C13.9862 3.75627 14.049 3.53906 14.125 3.32634C14.1607 3.22878 14.2061 3.13122 14.2515 3.03366C14.3366 2.84108 14.4342 2.65424 14.5434 2.47431V2.44504C14.5888 2.37024 14.631 2.29545 14.6829 2.2239C14.8533 1.96644 15.0477 1.72579 15.2635 1.5052C17.2592 -0.499191 20.4977 -0.502103 22.4969 1.4987C24.4961 3.4995 24.499 6.74635 22.5034 8.75074C22.2818 8.96668 22.0408 9.16155 21.7833 9.33286C21.7054 9.38814 21.6373 9.42717 21.5692 9.46944L21.5303 9.49221C21.3422 9.60277 21.1605 9.70034 20.9853 9.78164C20.8816 9.82717 20.7875 9.87269 20.6902 9.90847C20.4855 9.98299 20.2764 10.0449 20.0641 10.0938C20.0192 10.1034 19.9748 10.1153 19.9312 10.1296L19.8501 10.1524L18.718 10.2304C18.5753 10.2304 18.4228 10.2044 18.2639 10.1849H18.1925H18.0466H17.9525H17.9006H17.6476C13.5105 10.2455 10.1982 13.6433 10.2326 17.7914V17.8467V17.9052C10.2413 17.9623 10.2468 18.0199 10.2488 18.0776C10.2488 18.1394 10.2488 18.1979 10.265 18.2564C10.2812 18.315 10.265 18.367 10.2845 18.4256C10.2958 18.5097 10.3023 18.5944 10.3039 18.6792L10.2228 19.7947C10.2168 19.8243 10.2092 19.8536 10.2001 19.8825L10.1709 19.9833C10.1245 20.2041 10.0628 20.4215 9.98606 20.6337C9.95038 20.7312 9.90172 20.8321 9.85631 20.9329C9.77386 21.1207 9.68184 21.3041 9.5806 21.4825C9.5287 21.5735 9.48004 21.6548 9.4249 21.7329C9.25303 21.9931 9.05641 22.2359 8.8378 22.4581C7.88438 23.4178 6.58835 23.9563 5.23732 23.954V23.9443Z" fill="#fff" />
</svg>